<?xml version="1.0" standalone="no"?>
<!DOCTYPE svg PUBLIC "-//W3C//DTD SVG 20010904//EN"
 "http://www.w3.org/TR/2001/REC-SVG-20010904/DTD/svg10.dtd">
<svg version="1.0" xmlns="http://www.w3.org/2000/svg"
 width="792.000000pt" height="792.000000pt" viewBox="0 0 792.000000 792.000000"
 preserveAspectRatio="xMidYMid meet">
<metadata>
Created by potrace 1.11, written by Peter Selinger 2001-2013
</metadata>
<g transform="translate(0.000000,792.000000) scale(0.100000,-0.100000)"
fill="#000000" stroke="none">
<path d="M6056 7472 c-3 -6 -18 -13 -33 -17 -15 -3 -45 -14 -68 -24 -22 -10
-71 -30 -110 -46 -38 -15 -83 -33 -100 -40 -16 -7 -62 -27 -102 -43 -39 -17
-74 -28 -77 -25 -3 4 -6 1 -6 -5 0 -7 -6 -12 -12 -12 -11 0 -215 -80 -343
-135 -16 -7 -61 -25 -100 -40 -38 -15 -88 -35 -110 -45 -61 -26 -78 -33 -99
-37 -11 -2 -24 -7 -30 -12 -6 -5 -69 -32 -141 -60 -71 -28 -139 -56 -150 -61
-11 -5 -83 -35 -160 -66 -77 -31 -151 -61 -165 -67 -14 -5 -29 -11 -35 -13
-18 -5 -459 -185 -502 -204 -24 -11 -47 -20 -51 -20 -5 0 -22 -6 -38 -14 -16
-8 -99 -42 -184 -76 -85 -34 -164 -65 -175 -70 -88 -39 -151 -61 -167 -57 -10
3 -18 0 -18 -6 0 -8 -3 -8 -11 0 -7 7 -21 8 -38 3 -14 -4 -35 -4 -46 0 -19 7
-74 4 -82 -4 -3 -2 -18 0 -34 4 -20 6 -29 5 -29 -3 0 -8 -3 -8 -11 0 -7 7 -21
8 -39 3 -16 -5 -31 -6 -33 -4 -9 9 -62 10 -84 3 -12 -5 -25 -4 -27 0 -3 5 -20
6 -38 2 -18 -4 -51 -4 -74 -1 -22 4 -49 3 -60 0 -10 -4 -29 -4 -41 1 -13 5
-25 4 -28 -1 -3 -5 -15 -6 -28 -1 -12 5 -34 5 -49 1 -14 -5 -29 -6 -32 -3 -7
7 -116 7 -123 0 -3 -3 -16 -2 -29 3 -17 7 -24 6 -24 -2 0 -9 -3 -9 -11 -1 -7
7 -21 8 -38 3 -14 -4 -35 -4 -46 0 -19 7 -74 4 -82 -4 -3 -2 -18 0 -34 4 -19
6 -29 5 -29 -2 0 -7 -4 -7 -12 0 -7 5 -22 6 -33 2 -11 -4 -30 -4 -42 1 -19 7
-25 4 -38 -21 -9 -16 -15 -33 -15 -37 -1 -5 -6 -26 -12 -48 -6 -22 -12 -44
-14 -50 -1 -5 -21 -70 -44 -144 -23 -74 -43 -141 -45 -150 -2 -9 -10 -36 -18
-61 -8 -25 -23 -72 -32 -105 -9 -33 -21 -71 -25 -85 -5 -14 -23 -72 -40 -130
-17 -58 -34 -112 -36 -120 -3 -8 -5 -16 -5 -17 0 -2 -6 -21 -14 -43 -8 -22
-14 -44 -15 -48 0 -4 -9 -36 -21 -72 -12 -36 -23 -72 -24 -80 -2 -8 -20 -69
-40 -135 -37 -120 -85 -280 -110 -365 -7 -25 -21 -70 -31 -100 -10 -30 -18
-59 -20 -65 -1 -5 -24 -84 -52 -175 -28 -91 -55 -181 -60 -200 -5 -19 -40
-134 -77 -255 -76 -251 -153 -506 -165 -550 -5 -16 -34 -113 -65 -215 -31
-102 -58 -192 -60 -200 -2 -8 -22 -75 -45 -149 -23 -74 -43 -141 -45 -150 -2
-9 -9 -29 -15 -46 -7 -16 -13 -37 -14 -45 -2 -13 -37 -132 -82 -275 -9 -27
-22 -70 -29 -95 -7 -25 -41 -137 -75 -250 -34 -113 -63 -212 -65 -220 -2 -8
-4 -16 -5 -17 -2 -2 -3 -6 -5 -10 -1 -5 -4 -15 -7 -23 -6 -16 -30 -98 -34
-115 -1 -5 -21 -71 -44 -145 -23 -74 -46 -148 -50 -165 -4 -16 -17 -58 -28
-92 -11 -35 -18 -63 -15 -63 3 0 1 -6 -4 -12 -9 -11 -16 -34 -28 -88 -2 -8
-15 -49 -28 -90 -20 -61 -35 -110 -52 -170 -1 -3 -7 -25 -15 -50 -7 -25 -14
-49 -16 -55 -1 -5 -5 -18 -9 -28 -7 -16 37 -17 875 -15 854 3 883 4 886 22 1
10 7 39 13 65 6 25 13 57 15 71 2 14 10 48 16 75 6 28 14 61 16 75 3 14 14 66
25 115 11 50 22 101 25 115 8 42 13 64 18 85 24 103 40 182 50 245 1 9 5 20 8
25 3 6 8 28 12 50 4 22 20 101 36 175 16 74 32 146 34 160 2 14 14 68 26 120
21 91 25 111 34 163 2 12 9 41 15 65 7 23 9 47 6 52 -3 6 -1 10 6 10 7 0 10 3
7 6 -3 3 0 29 7 57 8 29 16 66 19 82 3 17 7 39 9 50 3 11 19 88 37 170 18 83
34 158 36 168 2 9 6 27 9 40 2 12 9 42 15 67 5 25 12 56 14 70 3 14 21 99 41
190 40 182 39 179 50 235 5 22 9 42 10 45 1 3 5 23 10 45 9 46 14 72 20 100 3
11 7 29 9 40 2 11 10 43 16 70 6 28 14 61 16 75 2 14 10 48 16 75 7 28 11 57
10 65 -2 12 0 12 8 -1 5 -10 12 -32 14 -51 3 -18 7 -45 10 -58 3 -14 8 -38 11
-55 3 -16 10 -55 16 -85 6 -30 12 -68 15 -85 2 -16 7 -37 10 -47 6 -21 13 -54
19 -98 3 -19 8 -46 11 -60 3 -14 8 -36 10 -50 2 -14 7 -36 11 -50 3 -14 7 -36
8 -50 2 -14 6 -36 9 -50 7 -31 24 -117 30 -150 6 -35 18 -101 23 -125 2 -11 6
-36 9 -55 3 -19 8 -42 11 -50 3 -8 7 -28 9 -45 1 -16 5 -40 8 -52 10 -40 14
-60 20 -94 3 -19 14 -80 25 -137 12 -56 23 -117 26 -135 3 -17 8 -39 10 -47 4
-14 13 -65 20 -115 1 -11 5 -31 9 -45 3 -14 8 -36 10 -50 3 -14 10 -50 16 -80
6 -30 13 -71 16 -90 3 -19 9 -51 14 -70 5 -19 11 -53 15 -75 3 -22 7 -47 10
-55 2 -8 6 -31 9 -50 3 -19 8 -46 12 -60 3 -14 7 -34 8 -45 2 -11 6 -31 9 -45
4 -14 9 -41 12 -60 3 -19 14 -82 25 -140 28 -138 26 -127 66 -340 20 -102 37
-196 40 -210 2 -14 7 -36 10 -50 7 -31 16 -90 17 -112 1 -17 52 -18 924 -18
l923 0 52 32 c29 18 55 36 56 40 2 4 8 8 12 8 9 0 382 229 405 248 6 4 35 22
65 40 30 18 84 51 120 74 116 73 154 96 210 129 30 18 57 36 58 41 2 4 8 8 12
8 9 0 142 80 150 91 3 3 10 8 15 10 10 4 133 79 183 111 15 10 34 21 42 25 8
3 17 9 20 13 3 3 19 15 37 25 l32 20 -70 210 c-38 116 -69 217 -69 225 0 9 -4
20 -9 25 -6 6 -12 21 -15 35 -4 22 -47 156 -63 200 -4 8 -7 20 -9 25 -1 6 -16
51 -33 100 -17 50 -33 99 -36 109 -2 11 -12 42 -22 70 -9 28 -18 53 -18 56 -6
23 -39 127 -43 135 -4 6 -7 15 -8 20 -2 12 -76 240 -141 434 -24 73 -46 140
-48 150 -2 9 -18 57 -35 106 -17 50 -32 99 -35 110 -4 21 -42 136 -56 170 -10
25 -110 337 -113 350 -1 6 -4 15 -7 20 -3 6 -12 33 -19 60 -7 28 -16 55 -20
60 -4 6 -11 26 -15 45 -4 19 -13 49 -20 65 -19 48 -35 100 -35 118 0 9 -4 17
-8 17 -5 0 -9 6 -9 13 -1 12 -77 257 -90 287 -3 8 -7 17 -7 20 -2 13 -29 97
-37 115 -4 11 -36 108 -70 215 -33 107 -65 204 -69 215 -9 20 -43 126 -45 135
0 3 -18 58 -39 123 -21 65 -36 120 -34 121 12 11 151 76 154 73 4 -3 69 -191
77 -222 2 -5 16 -48 31 -95 16 -47 29 -89 31 -95 2 -10 8 -26 28 -80 7 -16 12
-32 12 -35 4 -26 19 -77 25 -85 5 -5 8 -13 8 -18 1 -11 62 -199 73 -222 6 -12
11 -27 13 -35 6 -31 19 -75 25 -85 3 -5 6 -12 7 -15 3 -18 27 -97 32 -105 4
-5 7 -14 8 -20 3 -15 204 -627 214 -650 8 -19 164 -495 165 -505 0 -3 16 -50
35 -105 19 -55 35 -102 35 -105 0 -3 36 -111 79 -240 43 -129 80 -242 82 -250
2 -8 33 -103 69 -210 36 -107 68 -202 70 -210 2 -8 24 -76 49 -150 26 -74 48
-143 51 -153 6 -25 137 -420 142 -429 4 -7 39 12 129 69 57 37 157 99 172 108
19 11 377 234 444 277 24 15 59 36 78 48 19 11 67 40 105 65 39 25 79 49 90
55 11 5 69 41 128 80 60 38 113 70 118 70 5 0 9 5 9 10 0 6 6 10 14 10 39 0
34 48 -21 180 -3 8 -7 22 -9 30 -2 8 -7 23 -12 35 -6 11 -15 34 -20 50 -20 58
-84 241 -107 305 -13 36 -51 144 -85 240 -34 96 -64 182 -67 190 -3 8 -7 20
-9 25 -1 6 -19 55 -39 110 -20 55 -38 107 -40 115 -2 8 -21 60 -41 115 -20 55
-62 174 -94 265 -32 91 -79 224 -105 295 -26 72 -48 135 -49 140 -2 6 -6 18
-9 28 -4 9 -10 25 -14 35 -3 9 -7 22 -9 27 -6 23 -71 202 -76 211 -3 5 -15 41
-27 79 -12 39 -26 79 -30 90 -8 18 -57 154 -83 230 -5 17 -14 39 -18 50 -4 11
-22 63 -40 115 -18 52 -36 104 -40 115 -12 29 -23 58 -26 70 -1 6 -23 69 -49
140 -26 72 -51 141 -55 155 -5 14 -27 77 -50 140 -23 63 -50 140 -60 170 -10
30 -25 73 -33 95 -9 22 -29 78 -45 125 -40 113 -88 250 -117 330 -12 36 -39
112 -60 170 -20 58 -40 114 -44 125 -11 28 -30 83 -46 130 -7 22 -32 92 -55
155 -23 63 -43 120 -44 125 -2 6 -6 19 -10 30 -26 69 -46 124 -53 149 -10 31
-27 44 -37 28z"/>
</g>
</svg>
